<?xml version="1.0" encoding="UTF-8" standalone="no"?>
<svg
   version="1.0"
   width="2500.000000pt"
   height="2500.000000pt"
   viewBox="0 0 2500.000000 2500.000000"
   preserveAspectRatio="xMidYMid meet"
   id="svg7"
   sodipodi:docname="logo.svg"
   inkscape:version="1.4 (e7c3feb100, 2024-10-09)"
   xmlns:inkscape="http://www.inkscape.org/namespaces/inkscape"
   xmlns:sodipodi="http://sodipodi.sourceforge.net/DTD/sodipodi-0.dtd"
   xmlns="http://www.w3.org/2000/svg"
   xmlns:svg="http://www.w3.org/2000/svg">
  <defs
     id="defs7" />
  <sodipodi:namedview
     id="namedview7"
     pagecolor="#ffffff"
     bordercolor="#000000"
     borderopacity="0.25"
     inkscape:showpageshadow="2"
     inkscape:pageopacity="0.0"
     inkscape:pagecheckerboard="0"
     inkscape:deskcolor="#d1d1d1"
     inkscape:document-units="pt"
     inkscape:zoom="0.3102"
     inkscape:cx="1665.0548"
     inkscape:cy="1663.4429"
     inkscape:window-width="3840"
     inkscape:window-height="2491"
     inkscape:window-x="0"
     inkscape:window-y="0"
     inkscape:window-maximized="1"
     inkscape:current-layer="svg7" />
  <g
     transform="translate(0.000000,2500.000000) scale(0.100000,-0.100000)"
     fill="#000000"
     stroke="none"
     id="g7"
     style="fill:#000000;fill-opacity:1">
    <path
       d="M6209 23718 c-1 -5 -2 -11 -3 -15 -5 -20 -20 -121 -21 -143 -1 -14 -5 -47 -9 -75 -18 -126 -24 -172 -30 -220 -3 -22 -8 -58 -11 -80 -2 -22 -9 -76 -15 -120 -6 -44 -13 -98 -15 -120 -3 -22 -7 -57 -9 -77 -3 -21 -7 -50 -11 -66 -3 -16 -8 -53 -10 -82 -2 -29 -7 -66 -10 -82 -4 -16 -8 -45 -11 -66 -2 -20 -6 -55 -9 -77 -11 -73 -14 -100 -20 -155 -3 -30 -7 -64 -10 -75 -2 -11 -7 -42 -10 -70 -3 -27 -8 -63 -10 -80 -3 -16 -7 -52 -10 -80 -3 -27 -8 -61 -10 -75 -5 -25 -9 -49 -20 -145 -3 -27 -8 -61 -10 -75 -2 -14 -6 -45 -9 -70 -10 -81 -17 -135 -21 -160 -2 -14 -7 -47 -10 -75 -3 -27 -8 -61 -10 -75 -5 -29 -14 -105 -21 -175 -2 -27 -7 -63 -9 -80 -2 -16 -7 -52 -10 -80 -3 -27 -7 -61 -10 -75 -13 -59 -8 -101 13 -116 12 -8 28 -21 36 -29 8 -8 19 -15 25 -15 6 0 11 -3 11 -7 0 -5 17 -19 37 -33 20 -14 41 -30 47 -36 11 -10 76 -59 175 -133 25 -19 48 -37 51 -40 3 -3 23 -19 45 -36 22 -16 45 -34 51 -40 6 -5 27 -21 47 -35 20 -14 37 -28 37 -32 0 -5 6 -8 13 -8 6 0 29 -16 49 -35 20 -19 41 -35 45 -35 5 0 26 -16 46 -35 20 -19 40 -35 45 -35 4 0 19 -11 34 -25 15 -14 30 -25 32 -25 6 0 45 -32 72 -57 7 -7 15 -13 18 -13 6 0 44 -31 72 -57 7 -7 15 -13 19 -13 7 0 24 -14 60 -47 13 -13 27 -23 30 -23 4 0 13 -6 20 -12 30 -27 44 -38 50 -38 3 0 17 -10 30 -22 35 -33 53 -48 60 -48 5 0 44 -32 71 -57 7 -7 15 -13 18 -13 6 0 44 -31 72 -57 7 -7 17 -13 23 -13 6 0 11 -3 11 -7 0 -5 16 -19 36 -32 19 -13 49 -37 67 -53 18 -15 36 -28 40 -28 5 0 25 -16 45 -35 20 -19 41 -35 45 -35 5 0 25 -16 45 -35 20 -19 40 -35 44 -35 7 0 44 -28 74 -57 7 -7 17 -13 22 -13 6 0 12 -4 14 -8 3 -8 41 -38 167 -131 25 -19 48 -37 51 -40 3 -3 23 -19 45 -36 22 -16 45 -34 51 -40 6 -5 27 -21 47 -35 20 -14 37 -28 37 -32 0 -5 4 -8 10 -8 9 0 42 -25 76 -57 7 -7 15 -13 19 -13 4 0 12 -6 20 -12 7 -7 25 -22 40 -32 24 -18 49 -38 82 -66 7 -5 15 -10 18 -10 3 0 17 -10 30 -22 36 -34 53 -48 60 -48 3 0 17 -11 31 -25 14 -14 28 -25 33 -25 4 0 16 -8 27 -18 10 -10 37 -31 59 -47 22 -17 51 -40 65 -52 14 -13 28 -23 32 -23 5 0 22 -13 40 -30 17 -16 34 -30 38 -30 4 0 25 -16 46 -35 22 -19 42 -35 45 -35 4 0 24 -16 45 -35 22 -19 42 -35 46 -35 4 0 13 -6 20 -12 7 -7 31 -26 53 -42 22 -17 42 -32 45 -35 3 -4 50 -40 105 -81 55 -41 102 -78 105 -81 5 -5 42 -33 169 -128 25 -19 51 -40 57 -45 6 -6 27 -22 47 -36 20 -14 37 -28 37 -32 0 -5 6 -8 13 -8 6 0 29 -16 49 -35 20 -19 40 -35 45 -35 4 0 25 -16 45 -35 20 -19 41 -35 45 -35 5 0 26 -16 46 -35 20 -19 40 -35 45 -35 4 0 19 -11 34 -25 15 -14 30 -25 32 -25 6 0 45 -32 72 -57 7 -7 15 -13 19 -13 7 0 24 -14 60 -47 13 -13 27 -23 30 -23 7 0 24 -14 60 -47 13 -13 27 -23 30 -23 4 0 13 -6 20 -12 30 -27 44 -38 50 -38 3 0 17 -10 30 -22 35 -33 53 -48 60 -48 5 0 44 -32 71 -57 7 -7 15 -13 18 -13 6 0 44 -31 72 -57 7 -7 17 -13 23 -13 6 0 11 -3 11 -7 0 -5 17 -19 37 -33 20 -14 41 -30 47 -36 12 -11 121 -94 144 -109 18 -12 60 -45 78 -62 7 -7 15 -13 18 -13 6 0 44 -31 72 -57 7 -7 17 -13 22 -13 6 0 12 -4 14 -8 3 -8 30 -29 167 -131 25 -19 51 -40 57 -45 6 -6 27 -22 47 -36 20 -14 37 -28 37 -32 0 -5 4 -8 10 -8 9 0 42 -25 76 -57 7 -7 15 -13 18 -13 6 0 44 -31 72 -57 7 -7 15 -13 19 -13 4 0 12 -6 20 -12 7 -7 25 -22 40 -32 24 -18 49 -38 82 -66 7 -5 15 -10 18 -10 3 0 17 -10 30 -22 40 -38 54 -48 65 -48 5 0 10 -3 10 -7 0 -5 17 -19 37 -33 20 -14 41 -30 47 -35 6 -6 29 -24 51 -40 22 -17 51 -40 65 -52 14 -13 30 -23 37 -23 7 0 13 -4 13 -10 0 -5 4 -10 10 -10 11 0 -113 170 -162 222 -10 10 -18 22 -18 27 0 5 -4 11 -8 13 -5 2 -28 30 -53 63 -24 33 -46 62 -49 65 -3 3 -25 32 -50 65 -25 33 -47 62 -50 65 -3 3 -32 41 -65 85 -33 44 -62 82 -65 85 -3 3 -25 32 -50 65 -25 33 -48 62 -52 63 -5 2 -8 10 -8 18 0 8 -3 14 -7 14 -5 0 -24 23 -43 50 -19 27 -38 50 -42 50 -5 0 -8 5 -8 10 0 6 -8 18 -17 28 -24 25 -31 35 -152 197 -58 77 -109 145 -115 150 -6 6 -31 37 -56 70 -25 33 -48 62 -52 63 -5 2 -8 10 -8 18 0 8 -3 14 -7 14 -5 0 -24 23 -43 50 -19 27 -38 50 -42 50 -5 0 -8 7 -8 15 0 8 -4 15 -8 15 -4 0 -30 31 -57 70 -28 38 -53 70 -57 70 -5 0 -8 6 -8 14 0 8 -4 16 -8 18 -5 2 -28 30 -53 63 -24 33 -46 62 -49 65 -3 3 -25 32 -50 65 -25 32 -52 67 -60 76 -31 33 -50 60 -50 68 0 5 -4 11 -8 13 -8 3 -55 64 -165 212 -21 28 -42 53 -48 54 -5 2 -9 10 -9 17 0 7 -4 15 -8 17 -5 2 -28 30 -53 63 -24 33 -46 62 -49 65 -3 3 -25 32 -50 65 -25 32 -52 67 -60 76 -8 8 -35 44 -60 79 -25 35 -49 68 -55 74 -5 6 -30 38 -55 71 -25 33 -48 62 -52 63 -5 2 -8 10 -8 17 0 7 -3 15 -7 17 -5 2 -35 37 -68 78 -33 41 -63 77 -67 78 -5 2 -8 10 -8 17 0 7 -3 15 -8 17 -4 2 -34 39 -67 83 -32 44 -79 105 -103 135 -58 74 -60 77 -112 145 -25 33 -48 62 -52 63 -5 2 -8 10 -8 18 0 8 -3 14 -7 14 -5 0 -24 23 -43 50 -19 27 -38 50 -42 50 -5 0 -8 7 -8 15 0 8 -4 15 -8 15 -4 0 -30 31 -57 70 -28 38 -53 70 -57 70 -5 0 -8 7 -8 15 0 8 -3 15 -7 15 -5 0 -24 23 -43 50 -19 27 -38 50 -42 50 -5 0 -8 4 -8 10 0 9 -18 35 -50 69 -8 9 -35 44 -60 76 -25 33 -48 62 -52 63 -5 2 -8 10 -8 17 0 7 -4 15 -8 17 -5 2 -28 30 -53 63 -44 60 -114 150 -150 193 -10 12 -19 27 -19 32 0 6 -3 10 -7 10 -5 0 -24 23 -43 50 -19 27 -38 50 -42 50 -5 0 -8 6 -8 14 0 8 -3 16 -7 18 -5 2 -28 30 -53 63 -25 32 -52 67 -60 76 -8 8 -35 44 -60 79 -25 35 -49 68 -55 74 -5 6 -30 38 -55 71 -25 33 -48 62 -52 63 -5 2 -8 8 -8 14 0 6 -11 21 -25 34 -14 13 -25 28 -25 34 0 5 -3 10 -7 10 -5 0 -24 23 -43 50 -19 27 -38 50 -42 50 -5 0 -8 6 -8 14 0 8 -3 16 -8 18 -4 2 -34 39 -67 83 -33 44 -79 105 -103 135 -51 64 -52 66 -112 145 -25 33 -48 62 -52 63 -5 2 -8 10 -8 18 0 8 -3 14 -7 14 -5 0 -24 23 -43 50 -19 27 -38 50 -42 50 -5 0 -8 7 -8 15 0 8 -4 15 -8 15 -4 0 -30 31 -57 70 -28 38 -53 70 -57 70 -5 0 -8 7 -8 15 0 8 -3 15 -7 15 -5 0 -24 23 -43 50 -19 27 -38 50 -42 50 -5 0 -8 4 -8 10 0 9 -18 35 -50 69 -8 9 -35 44 -60 76 -25 33 -47 62 -50 65 -3 3 -30 39 -60 80 -29 41 -58 80 -64 85 -6 6 -31 37 -55 70 -25 33 -48 62 -53 63 -4 2 -8 10 -8 18 0 8 -3 14 -7 14 -5 0 -24 23 -43 50 -19 27 -38 50 -42 50 -5 0 -8 6 -8 14 0 8 -3 16 -7 18 -5 2 -28 30 -53 63 -25 33 -50 65 -56 70 -6 6 -35 44 -64 85 -30 41 -57 77 -60 80 -3 3 -25 32 -50 65 -47 63 -77 99 -97 121 -7 7 -13 17 -13 23 0 6 -3 11 -7 11 -5 0 -24 23 -43 50 -19 27 -38 50 -42 50 -5 0 -8 7 -8 15 0 8 -3 15 -8 15 -4 0 -15 12 -24 28 -10 15 -18 24 -19 20z"
       id="path1"
       style="fill:#000000;fill-opacity:1" />
    <path
       d="M9937 22140 c-103 -243 -721 -1741 -724 -1756 -5 -20 21 -59 108 -162 10 -13 19 -28 19 -33 0 -5 3 -9 8 -9 4 0 23 -23 42 -50 19 -27 38 -50 43 -50 4 0 7 -6 7 -14 0 -8 3 -16 8 -18 4 -1 27 -30 52 -63 25 -33 47 -62 50 -65 3 -3 32 -41 65 -85 33 -44 62 -82 65 -85 3 -3 25 -32 50 -65 25 -33 47 -62 50 -65 3 -3 25 -32 49 -65 25 -33 48 -61 53 -63 4 -2 8 -8 8 -13 0 -6 11 -20 25 -33 14 -13 25 -28 25 -34 0 -6 3 -12 8 -14 8 -3 131 -164 189 -246 18 -25 36 -48 40 -51 4 -3 28 -33 53 -66 25 -33 47 -62 50 -65 3 -3 25 -32 49 -65 25 -33 48 -61 53 -63 4 -2 8 -10 8 -18 0 -8 3 -14 8 -14 4 0 29 -30 57 -68 27 -37 53 -68 57 -70 4 -2 8 -10 8 -18 0 -8 3 -14 8 -14 4 0 23 -23 42 -50 19 -27 38 -50 43 -50 4 0 7 -4 7 -10 0 -5 6 -18 14 -27 12 -15 79 -99 139 -173 7 -8 37 -49 67 -90 52 -71 118 -157 161 -208 10 -12 19 -27 19 -32 0 -6 3 -10 8 -10 4 0 23 -23 42 -50 19 -27 38 -50 43 -50 4 0 7 -6 7 -14 0 -8 4 -16 8 -18 5 -1 28 -30 53 -63 24 -33 49 -64 55 -70 6 -5 35 -44 64 -85 30 -41 57 -77 60 -80 3 -3 25 -32 50 -65 62 -82 72 -95 93 -117 9 -10 17 -22 17 -28 0 -5 3 -10 8 -10 4 0 23 -23 42 -50 19 -27 38 -50 43 -50 4 0 7 -6 7 -14 0 -8 4 -16 8 -18 5 -1 35 -39 67 -83 33 -44 79 -105 103 -135 50 -63 52 -66 112 -145 25 -33 47 -62 50 -65 3 -3 25 -32 49 -65 25 -33 48 -61 53 -63 4 -2 8 -10 8 -18 0 -8 3 -14 8 -14 4 0 29 -30 57 -68 27 -37 53 -68 57 -70 4 -2 8 -10 8 -18 0 -8 3 -14 8 -14 4 0 23 -23 42 -50 19 -27 38 -50 43 -50 4 0 7 -5 7 -11 0 -7 11 -22 25 -35 14 -13 25 -25 25 -28 0 -3 7 -14 15 -23 8 -10 29 -36 46 -58 18 -22 30 -33 26 -25 -16 43 -97 238 -307 745 -128 308 -243 585 -255 615 -12 30 -132 318 -265 640 -133 322 -253 610 -265 640 -12 30 -127 307 -255 615 -128 308 -247 596 -265 640 -18 44 -137 332 -265 640 -300 723 -590 1425 -600 1450 -7 18 -10 16 -23 -15z"
       id="path2"
       style="fill:#000000;fill-opacity:1" />
    <path
       d="M4401 21481 c5 -31 11 -81 15 -111 3 -30 8 -62 9 -70 2 -8 6 -44 10 -80 4 -36 9 -74 11 -85 2 -11 7 -42 10 -70 3 -27 7 -61 9 -75 2 -14 6 -50 10 -80 4 -30 8 -66 10 -80 3 -27 15 -119 20 -160 1 -14 5 -44 9 -67 3 -24 8 -61 11 -83 3 -22 7 -58 10 -80 8 -64 15 -114 19 -135 2 -11 7 -47 10 -80 4 -33 9 -71 11 -85 2 -14 6 -47 10 -75 15 -115 45 -348 60 -455 15 -110 32 -238 76 -565 10 -82 22 -175 25 -205 4 -30 8 -56 9 -58 2 -2 6809 -2824 6993 -2899 8 -3 10 0 6 11 -3 9 -11 16 -18 16 -6 0 -23 11 -38 25 -15 14 -30 25 -32 25 -6 0 -45 32 -72 58 -7 6 -15 12 -18 12 -6 0 -44 31 -72 58 -7 6 -15 12 -19 12 -7 0 -24 14 -60 48 -13 12 -27 22 -30 22 -4 0 -13 6 -20 13 -30 26 -44 37 -50 37 -3 0 -17 10 -30 23 -35 32 -53 47 -60 47 -5 0 -44 32 -71 58 -7 6 -15 12 -18 12 -6 0 -44 31 -72 58 -7 6 -17 12 -23 12 -6 0 -11 3 -11 8 0 4 -17 18 -37 32 -20 14 -41 30 -47 36 -12 11 -121 94 -144 109 -18 12 -60 45 -78 63 -7 6 -15 12 -18 12 -6 0 -44 31 -72 58 -7 6 -15 12 -18 12 -5 0 -21 12 -70 55 -7 6 -19 15 -28 20 -22 14 -131 97 -144 109 -6 6 -27 22 -47 36 -20 14 -37 28 -37 33 0 4 -4 7 -10 7 -9 0 -42 25 -76 58 -7 6 -15 12 -18 12 -6 0 -44 31 -72 58 -7 6 -15 12 -19 12 -7 0 -24 14 -60 48 -13 12 -27 22 -30 22 -4 0 -13 6 -20 13 -30 26 -44 37 -50 37 -3 0 -17 10 -30 23 -36 33 -53 47 -60 47 -3 0 -17 10 -30 23 -40 37 -54 47 -65 47 -5 0 -10 3 -10 8 0 4 -16 18 -36 31 -19 13 -49 37 -67 53 -18 15 -35 28 -40 28 -4 0 -21 14 -39 30 -17 17 -34 30 -38 30 -4 0 -25 16 -46 35 -22 19 -42 35 -45 35 -4 0 -24 16 -45 35 -22 19 -42 35 -46 35 -4 0 -13 6 -20 13 -7 7 -31 26 -53 42 -22 17 -46 35 -55 42 -39 31 -340 261 -375 287 -22 17 -42 32 -45 36 -3 3 -23 18 -45 35 -22 16 -46 35 -53 42 -7 7 -16 13 -20 13 -4 0 -21 14 -39 30 -18 17 -36 30 -40 30 -4 0 -25 16 -45 35 -20 19 -41 35 -45 35 -5 0 -26 16 -46 35 -20 19 -40 35 -45 35 -4 0 -19 11 -34 25 -15 14 -30 25 -32 25 -6 0 -45 32 -72 58 -7 6 -15 12 -19 12 -7 0 -24 14 -60 48 -13 12 -27 22 -30 22 -7 0 -24 14 -60 48 -13 12 -27 22 -30 22 -4 0 -13 6 -20 13 -30 26 -44 37 -50 37 -3 0 -17 10 -30 23 -35 32 -53 47 -60 47 -5 0 -44 32 -71 58 -7 6 -17 12 -23 12 -6 0 -11 3 -11 8 0 4 -17 18 -37 32 -20 14 -41 30 -47 35 -6 6 -29 24 -51 40 -22 17 -42 32 -45 36 -5 5 -62 49 -169 128 -25 19 -47 38 -49 43 -2 4 -8 8 -13 8 -8 0 -42 26 -75 58 -7 6 -16 12 -21 12 -4 0 -24 15 -43 33 -20 17 -43 37 -52 42 -22 14 -131 97 -144 109 -6 6 -27 22 -47 36 -20 14 -37 28 -37 33 0 4 -4 7 -10 7 -9 0 -42 25 -76 58 -7 6 -15 12 -18 12 -6 0 -44 31 -72 58 -7 6 -15 12 -19 12 -7 0 -24 14 -60 48 -13 12 -27 22 -30 22 -4 0 -13 6 -20 13 -30 26 -44 37 -50 37 -3 0 -17 10 -30 23 -35 32 -53 47 -60 47 -5 0 -44 32 -71 58 -7 6 -17 12 -23 12 -6 0 -11 3 -11 8 0 4 -16 18 -36 31 -19 13 -49 37 -67 53 -18 15 -35 28 -39 28 -5 0 -25 16 -45 35 -20 19 -41 35 -46 35 -4 0 -22 13 -40 30 -18 16 -35 30 -39 30 -4 0 -13 6 -20 13 -7 7 -31 26 -53 42 -22 17 -42 32 -45 35 -3 4 -23 19 -45 36 -22 16 -46 34 -55 41 -8 7 -80 62 -160 123 -80 61 -152 116 -160 123 -9 7 -33 25 -55 41 -22 17 -42 32 -45 36 -3 3 -23 18 -45 35 -22 16 -46 35 -53 42 -7 7 -16 13 -20 13 -4 0 -21 14 -39 30 -18 17 -36 30 -40 30 -5 0 -26 16 -46 35 -20 19 -41 35 -45 35 -4 0 -25 16 -45 35 -20 19 -40 35 -45 35 -4 0 -19 11 -34 25 -15 14 -30 25 -33 25 -4 0 -12 6 -19 13 -27 25 -66 57 -71 57 -7 0 -25 15 -60 48 -13 12 -27 22 -30 22 -4 0 -13 6 -20 13 -30 26 -44 37 -50 37 -3 0 -17 10 -30 23 -36 33 -53 47 -60 47 -3 0 -17 10 -30 23 -36 33 -53 47 -60 47 -4 0 -12 6 -19 13 -34 32 -67 57 -76 57 -6 0 -10 3 -10 8 0 4 -20 21 -45 37 -24 17 -45 33 -45 36 0 4 -6 9 -13 12 -11 4 -12 -7 -6 -52z"
       id="path3"
       style="fill:#000000;fill-opacity:1" />
    <path
       d="M11630 20409 c0 -8 5 -30 11 -49 5 -19 22 -80 35 -135 14 -55 27 -107 30 -115 2 -8 13 -51 24 -95 11 -44 22 -87 24 -95 3 -8 16 -62 31 -120 15 -58 36 -139 46 -180 20 -76 25 -99 34 -135 6 -28 45 -177 50 -195 9 -29 46 -175 50 -195 2 -11 14 -56 26 -100 23 -89 21 -80 49 -190 11 -44 22 -87 24 -95 2 -8 14 -53 26 -100 12 -47 24 -92 26 -100 18 -69 45 -179 49 -195 9 -36 14 -59 36 -140 29 -112 59 -226 64 -250 3 -11 7 -29 10 -40 2 -11 11 -45 20 -75 9 -30 18 -64 20 -75 7 -30 29 -119 59 -235 2 -8 14 -53 26 -100 12 -47 24 -92 26 -100 18 -69 45 -179 49 -195 9 -36 14 -59 36 -140 29 -112 59 -226 64 -250 21 -91 36 -149 42 -165 7 -16 8 -23 17 -60 3 -14 14 -59 25 -100 11 -41 27 -104 36 -140 8 -36 18 -73 21 -82 4 -12 0 -18 -10 -18 -9 0 -16 -3 -16 -7 0 -5 -10 -13 -23 -18 -31 -15 -111 -59 -117 -65 -3 -3 -21 -13 -40 -23 -61 -32 -93 -51 -167 -94 -40 -24 -77 -43 -83 -43 -5 0 -10 -3 -10 -7 0 -5 -25 -19 -55 -33 -30 -14 -55 -28 -55 -32 0 -5 -5 -8 -10 -8 -6 0 -43 -19 -83 -43 -74 -43 -106 -62 -167 -94 -19 -10 -37 -20 -40 -23 -4 -4 -29 -18 -115 -64 -11 -6 -22 -13 -25 -16 -3 -3 -23 -14 -44 -25 -22 -11 -44 -25 -50 -30 -6 -6 -22 -16 -36 -22 -14 -7 -56 -31 -95 -53 -38 -23 -82 -46 -97 -53 -16 -6 -28 -15 -28 -19 0 -4 -5 -8 -11 -8 -6 0 -37 -15 -68 -34 -94 -57 -165 -97 -193 -109 -16 -6 -28 -15 -28 -19 0 -4 -5 -8 -11 -8 -6 0 -37 -15 -68 -34 -55 -33 -96 -56 -176 -99 -22 -12 -42 -24 -45 -27 -3 -3 -16 -11 -30 -17 -33 -16 -116 -64 -216 -124 -45 -27 -87 -49 -93 -49 -6 0 -11 -3 -11 -7 0 -5 -10 -13 -23 -18 -31 -15 -111 -59 -117 -65 -5 -5 -59 -35 -125 -69 -16 -9 -32 -18 -35 -21 -3 -3 -23 -15 -45 -27 -80 -43 -121 -66 -176 -99 -31 -19 -62 -34 -68 -34 -6 0 -11 -4 -11 -8 0 -4 -12 -13 -27 -19 -16 -7 -59 -30 -98 -53 -38 -23 -82 -46 -97 -53 -16 -6 -28 -15 -28 -19 0 -4 -4 -8 -10 -8 -5 0 -55 -27 -110 -60 -55 -33 -105 -60 -110 -60 -6 0 -10 -4 -10 -9 0 -5 -13 -12 -30 -16 -16 -4 -30 -10 -30 -14 0 -3 -17 -15 -37 -26 -21 -10 -71 -38 -110 -62 -40 -24 -77 -43 -82 -43 -5 0 -11 -3 -13 -7 -1 -5 -19 -16 -38 -27 -89 -47 -167 -91 -190 -106 -14 -9 -43 -26 -65 -37 -68 -35 -110 -58 -115 -63 -4 -4 -29 -18 -115 -64 -11 -6 -22 -13 -25 -16 -3 -3 -26 -16 -52 -30 -56 -29 -64 -46 -13 -24 19 8 259 107 532 220 274 113 784 324 1133 469 349 145 923 382 1275 528 352 146 892 369 1200 497 662 274 701 290 870 360 72 29 131 54 133 55 3 2 -100 252 -675 1640 -146 352 -369 890 -495 1195 -127 305 -247 596 -267 645 -21 50 -134 322 -251 605 -117 283 -214 517 -216 519 -2 2 -4 -2 -4 -10z"
       id="path4"
       style="fill:#000000;fill-opacity:1" />
    <path
       d="M15709 19758 c0 -13 -2 -32 -4 -43 -2 -11 -7 -42 -10 -70 -3 -27 -7 -63 -10 -80 -11 -83 -16 -114 -21 -155 -3 -25 -7 -56 -9 -70 -5 -27 -11 -75 -20 -160 -4 -30 -8 -57 -10 -60 -1 -3 -6 -34 -10 -70 -3 -36 -8 -76 -10 -90 -1 -14 -6 -50 -10 -80 -4 -30 -9 -68 -11 -85 -2 -16 -6 -48 -9 -70 -5 -39 -11 -82 -21 -147 -2 -18 -7 -55 -9 -83 -3 -27 -7 -61 -10 -75 -4 -14 -8 -43 -9 -65 -2 -22 -6 -53 -9 -70 -4 -16 -9 -50 -11 -75 -9 -79 -17 -144 -22 -175 -11 -70 -14 -93 -19 -140 -3 -27 -7 -63 -10 -80 -8 -47 -15 -105 -20 -157 -2 -26 -6 -56 -9 -65 -3 -10 -8 -47 -11 -83 -4 -35 -8 -67 -10 -71 -3 -3 -7 -30 -9 -60 -3 -30 -12 -103 -20 -164 -9 -60 -18 -128 -20 -150 -10 -79 -16 -120 -21 -150 -3 -16 -7 -52 -10 -80 -3 -27 -8 -66 -11 -85 -3 -19 -8 -55 -10 -80 -2 -25 -6 -56 -9 -70 -3 -14 -8 -49 -10 -79 -3 -30 -7 -62 -10 -71 -3 -8 -7 -44 -10 -79 -3 -34 -7 -66 -10 -71 -3 -5 -7 -33 -10 -62 -5 -57 -12 -116 -20 -163 -3 -16 -7 -52 -10 -80 -5 -46 -12 -98 -21 -150 -3 -21 -12 -90 -20 -165 -2 -25 -7 -58 -11 -75 -3 -16 -7 -48 -9 -70 -2 -22 -5 -55 -8 -73 -9 -59 -16 -106 -21 -147 -3 -22 -7 -56 -10 -75 -5 -35 -12 -90 -21 -165 -3 -22 -7 -51 -9 -65 -2 -14 -6 -45 -9 -70 -10 -80 -17 -134 -21 -160 -5 -27 -10 -73 -20 -156 -3 -28 -7 -60 -10 -72 -2 -11 -6 -45 -10 -74 -3 -29 -8 -64 -10 -78 -6 -46 -15 -115 -21 -160 -5 -47 -11 -87 -19 -130 -2 -14 -7 -52 -10 -86 -3 -33 -8 -71 -10 -85 -6 -33 -16 -101 -17 -117 -1 -7 -6 -11 -12 -9 -6 3 -523 217 -1148 476 -626 259 -1141 471 -1146 471 -4 0 -69 -25 -143 -56 -73 -31 -159 -67 -189 -79 -30 -12 -318 -132 -640 -265 -322 -133 -610 -253 -640 -265 -30 -13 -305 -126 -610 -253 -727 -301 -1773 -734 -2127 -881 l-281 -116 -612 -1476 c-336 -812 -613 -1485 -616 -1496 -3 -12 20 -82 56 -169 34 -82 77 -185 95 -229 18 -44 137 -332 265 -640 128 -308 242 -585 255 -615 12 -30 132 -318 265 -640 133 -322 253 -610 265 -640 40 -98 475 -1147 594 -1434 l116 -278 2278 -944 c1253 -519 2293 -949 2312 -955 29 -11 41 -9 106 18 41 17 364 151 719 298 355 147 895 371 1200 497 305 127 580 241 610 253 30 12 226 93 435 180 209 86 390 161 402 166 22 8 23 39 2 39 -5 0 -25 15 -43 32 -18 18 -44 42 -57 52 -32 26 -148 126 -175 151 -12 11 -41 36 -64 55 -44 37 -55 47 -166 147 -38 34 -80 72 -94 83 -14 12 -49 43 -79 68 -30 26 -66 58 -81 72 -16 14 -47 41 -70 60 -23 19 -52 44 -64 55 -27 25 -143 125 -175 151 -13 10 -39 34 -57 52 -18 17 -36 32 -39 32 -3 0 -16 10 -29 23 -32 31 -165 147 -239 210 -22 18 -52 43 -67 57 -47 41 -150 134 -173 155 -13 11 -54 47 -92 80 -39 33 -80 69 -91 80 -12 11 -41 36 -64 55 -23 19 -52 44 -64 55 -85 80 -114 94 -778 369 -366 152 -670 276 -675 276 -8 0 -106 -40 -983 -403 -206 -86 -376 -155 -377 -154 -1 2 -457 1102 -520 1257 -19 47 -40 90 -46 96 -9 9 -1175 496 -1305 545 -25 10 -26 11 -8 21 14 8 712 298 1186 493 30 12 318 132 640 265 322 134 605 251 630 261 25 10 211 87 413 171 l369 153 241 582 c133 321 244 580 248 575 4 -4 10 -36 14 -72 4 -36 8 -72 10 -80 2 -8 6 -44 10 -80 4 -36 9 -74 11 -85 2 -11 7 -42 10 -70 3 -27 7 -61 9 -75 2 -14 6 -50 10 -80 4 -30 8 -66 10 -80 2 -14 6 -50 10 -80 4 -30 8 -66 10 -80 4 -30 15 -116 20 -150 2 -14 7 -50 10 -80 3 -30 8 -66 10 -80 2 -14 13 -99 25 -190 11 -91 23 -172 25 -180 2 -8 7 -37 10 -65 4 -27 8 -61 10 -75 2 -14 11 -81 20 -150 9 -69 34 -260 56 -425 21 -165 42 -320 45 -345 3 -25 7 -56 9 -70 2 -14 7 -52 11 -85 3 -33 8 -69 10 -80 2 -11 7 -40 10 -65 3 -25 7 -56 9 -70 2 -14 7 -52 11 -85 3 -33 8 -69 11 -80 2 -11 6 -38 8 -60 3 -22 6 -49 9 -60 2 -11 7 -49 11 -85 4 -36 9 -74 11 -85 2 -11 6 -42 9 -70 4 -36 12 -55 28 -68 12 -11 37 -32 54 -48 18 -16 35 -29 38 -29 3 0 17 -10 30 -22 64 -59 75 -68 84 -68 5 0 11 -3 13 -8 2 -4 25 -25 53 -47 27 -22 55 -44 61 -50 6 -5 23 -19 38 -30 16 -11 41 -31 56 -45 15 -14 51 -43 80 -65 29 -22 57 -44 64 -50 10 -9 72 -59 130 -105 10 -8 33 -27 51 -42 18 -16 36 -28 39 -28 4 0 17 -10 30 -23 12 -12 40 -35 61 -52 53 -42 126 -101 152 -125 12 -11 25 -20 28 -20 4 0 12 -6 19 -12 7 -7 30 -26 50 -43 37 -29 57 -45 104 -86 12 -10 25 -19 28 -19 2 0 16 -10 29 -22 13 -13 30 -28 37 -33 7 -6 27 -21 44 -35 17 -14 48 -38 69 -55 21 -16 44 -36 51 -43 7 -6 15 -12 19 -12 3 0 16 -10 29 -22 31 -31 63 -57 119 -98 27 -19 64 -50 82 -67 19 -18 38 -33 42 -33 4 0 25 -16 45 -35 20 -19 40 -35 43 -35 4 0 12 -6 19 -12 46 -44 87 -78 96 -78 5 0 10 -4 10 -10 0 -5 4 -10 9 -10 5 0 7 12 6 28 -7 59 -14 118 -19 147 -2 17 -7 53 -11 80 -3 28 -12 95 -21 150 -22 148 -52 363 -59 420 -4 28 -9 64 -11 80 -3 17 -8 50 -11 75 -9 81 -20 164 -28 220 -4 23 -31 224 -40 295 -5 39 -15 102 -21 140 -2 17 -6 45 -9 64 -5 45 -10 48 -75 56 -30 3 -66 8 -80 10 -39 5 -106 14 -153 20 -23 3 -58 7 -77 10 -44 6 -102 14 -160 21 -25 3 -56 7 -70 9 -27 5 -75 11 -156 20 -28 3 -60 7 -72 10 -11 2 -45 6 -74 10 -29 3 -64 8 -78 10 -53 8 -136 18 -152 19 -13 0 -11 7 12 41 15 22 37 50 48 63 11 12 30 38 43 57 13 19 27 35 32 35 4 0 7 4 7 10 0 9 25 42 58 76 6 7 12 16 12 21 0 4 16 25 35 45 19 20 35 40 35 45 0 4 13 22 28 40 16 18 40 48 53 67 13 20 27 36 32 36 4 0 7 4 7 10 0 9 25 42 58 76 6 7 12 15 12 19 0 4 6 12 13 19 25 27 57 66 57 71 0 7 15 25 48 60 12 13 22 27 22 30 0 4 6 13 13 20 26 30 37 44 37 50 0 3 10 17 23 30 32 35 47 53 47 60 0 5 32 44 58 71 6 7 12 15 12 19 0 4 6 12 13 19 25 27 57 66 57 72 0 2 11 17 25 32 14 15 25 32 25 39 0 6 5 13 12 15 10 4 3 108 -17 229 -7 42 -18 131 -28 219 -3 25 -8 59 -11 75 -2 17 -7 53 -11 80 -3 28 -12 95 -21 150 -16 112 -51 359 -59 420 -3 22 -8 58 -12 80 -5 41 -7 53 -17 140 -3 28 -8 59 -10 70 -2 11 -7 47 -11 80 -3 33 -10 79 -14 103 -9 47 2 57 17 15 6 -16 30 -75 55 -133 34 -83 413 -997 513 -1239 17 -42 20 -57 11 -67 -27 -30 -37 -43 -37 -49 0 -3 -10 -17 -22 -30 -33 -35 -48 -53 -48 -60 0 -5 -32 -44 -57 -71 -7 -7 -13 -17 -13 -23 0 -6 -3 -11 -7 -11 -5 0 -19 -16 -32 -36 -13 -19 -37 -49 -53 -67 -15 -18 -28 -35 -28 -39 0 -5 -16 -25 -35 -45 -19 -20 -35 -41 -35 -46 0 -4 -13 -22 -30 -40 -16 -18 -30 -35 -30 -39 0 -4 -6 -13 -13 -20 -7 -7 -26 -31 -42 -53 -17 -22 -32 -42 -35 -45 -4 -3 -19 -23 -36 -45 -16 -22 -34 -46 -41 -55 -7 -8 -62 -80 -123 -160 -61 -80 -116 -152 -123 -160 -7 -9 -25 -33 -41 -55 -17 -22 -32 -42 -36 -45 -3 -3 -18 -23 -35 -45 -16 -22 -32 -42 -35 -45 -8 -6 -30 -46 -30 -54 0 -3 3 -5 8 -4 4 1 32 -2 62 -7 30 -5 66 -9 80 -10 14 -1 45 -5 70 -9 25 -3 63 -9 85 -11 89 -12 111 -15 140 -20 17 -3 53 -7 80 -10 47 -5 70 -8 140 -19 31 -5 96 -13 175 -22 25 -2 59 -7 75 -11 17 -3 48 -7 70 -9 22 -2 55 -5 73 -8 59 -9 106 -16 147 -21 22 -3 56 -7 75 -10 61 -8 104 -14 156 -20 28 -3 60 -7 72 -10 34 -6 135 -18 154 -17 9 0 19 -5 21 -11 3 -7 82 -199 177 -427 95 -228 187 -451 205 -495 18 -44 137 -332 265 -640 128 -308 264 -636 302 -730 39 -93 73 -173 76 -177 4 -3 438 1034 964 2305 l957 2312 -33 80 c-19 44 -53 124 -76 179 -34 81 -419 1011 -495 1196 -12 30 -132 318 -265 640 -133 322 -253 610 -265 640 -13 30 -127 307 -255 615 -128 308 -247 596 -265 640 -18 44 -137 332 -265 640 -128 308 -351 848 -497 1200 -146 352 -379 915 -518 1250 -139 336 -362 873 -495 1195 -133 322 -254 614 -269 650 -15 36 -114 275 -221 533 -106 257 -197 467 -201 467 -5 0 -9 -10 -10 -22z m1426 -8293 c18 -44 137 -332 265 -640 128 -308 351 -848 497 -1200 146 -352 303 -732 350 -844 46 -111 83 -205 80 -207 -5 -5 -1259 514 -1272 527 -11 11 -10 9 -19 219 -4 85 -9 182 -11 215 -3 33 -7 125 -10 205 -3 80 -7 181 -10 225 -7 148 -18 364 -30 650 -3 66 -8 158 -10 205 -3 47 -7 141 -10 210 -3 69 -7 166 -10 215 -2 50 -7 144 -10 210 -3 66 -7 165 -10 220 -3 55 -7 152 -10 215 l-5 115 96 -230 c53 -126 111 -266 129 -310z"
       id="path5"
       style="fill:#000000;fill-opacity:1" />
    <path
       d="M5980 17902 c0 -6 4 -12 8 -14 5 -1 28 -30 53 -63 24 -33 46 -62 49 -65 3 -3 27 -34 55 -70 27 -36 53 -66 57 -68 5 -2 8 -10 8 -17 0 -7 3 -15 8 -17 4 -1 27 -30 52 -63 25 -33 47 -62 50 -65 3 -3 25 -32 50 -65 25 -33 48 -61 53 -63 4 -2 7 -8 7 -13 0 -6 11 -20 25 -33 14 -13 25 -28 25 -34 0 -6 4 -12 8 -14 8 -3 121 -149 181 -234 13 -19 28 -34 32 -34 5 0 9 -6 9 -14 0 -8 3 -16 8 -18 4 -1 27 -30 52 -63 25 -33 47 -62 50 -65 3 -3 25 -32 50 -65 25 -33 48 -61 53 -63 4 -2 7 -10 7 -17 0 -7 3 -15 8 -17 4 -1 30 -32 57 -68 28 -36 52 -67 55 -70 3 -3 25 -32 49 -65 25 -33 48 -61 53 -63 4 -2 8 -10 8 -17 0 -7 4 -15 8 -17 5 -1 28 -30 53 -62 75 -101 92 -117 135 -121 21 -3 55 -8 74 -11 19 -4 53 -8 75 -10 45 -4 105 -11 150 -19 17 -3 53 -7 80 -10 48 -5 112 -14 147 -21 15 -2 73 -9 163 -20 17 -2 46 -6 65 -8 19 -3 55 -8 80 -11 25 -3 56 -8 70 -10 26 -5 72 -10 156 -20 28 -3 61 -7 73 -10 12 -2 50 -7 84 -10 34 -3 73 -8 87 -10 43 -8 83 -14 130 -19 45 -6 114 -15 160 -21 14 -2 49 -7 78 -10 29 -4 63 -8 74 -10 12 -3 44 -7 72 -10 85 -10 120 -14 146 -20 14 -2 48 -7 75 -10 55 -6 111 -13 165 -20 19 -3 53 -7 75 -10 87 -11 122 -15 157 -21 50 -7 92 -12 158 -20 30 -3 64 -8 75 -11 11 -2 38 -6 60 -7 22 -2 54 -6 70 -9 17 -4 50 -9 75 -11 79 -9 144 -17 175 -22 70 -11 93 -14 140 -19 28 -3 64 -7 80 -10 47 -8 105 -15 157 -20 26 -2 56 -6 65 -9 10 -3 47 -8 83 -11 35 -4 67 -8 71 -10 3 -3 35 -7 70 -10 35 -3 71 -7 79 -10 8 -2 38 -7 65 -10 47 -5 72 -8 170 -21 80 -10 117 -12 111 -7 -6 6 -5461 2267 -5496 2278 -11 3 -20 2 -20 -3z"
       id="path6"
       style="fill:#000000;fill-opacity:1" />
    <path
       d="M11079 15486 c-2 -2 -29 -7 -59 -11 -30 -4 -66 -8 -80 -10 -14 -2 -50 -6 -80 -10 -30 -4 -66 -8 -80 -10 -14 -2 -50 -6 -80 -10 -30 -4 -66 -8 -80 -10 -27 -3 -119 -15 -160 -20 -14 -1 -43 -5 -65 -8 -22 -4 -59 -9 -82 -12 -24 -3 -62 -7 -85 -10 -49 -6 -67 -9 -228 -30 -63 -9 -181 -25 -262 -35 -82 -11 -214 -29 -295 -40 -82 -10 -200 -26 -263 -35 -63 -9 -182 -25 -265 -35 -82 -11 -167 -22 -187 -25 -21 -3 -56 -7 -78 -10 -101 -13 -128 -16 -165 -22 -22 -3 -50 -6 -62 -6 -13 -1 -23 -4 -23 -9 0 -4 10 -13 23 -19 12 -7 24 -15 27 -18 3 -3 23 -19 45 -36 22 -16 42 -31 45 -35 3 -3 23 -18 45 -35 22 -16 42 -32 45 -35 3 -3 30 -23 60 -45 30 -22 57 -42 60 -45 5 -6 61 -49 169 -129 25 -19 48 -37 51 -40 3 -3 21 -18 42 -33 l36 -28 644 266 c353 147 812 336 1018 421 206 85 377 157 379 159 2 2 2 6 -1 9 -2 3 -7 3 -9 1z"
       id="path7"
       style="fill:#000000;fill-opacity:1" />
  </g>
</svg>
