<?xml version="1.0" encoding="UTF-8" standalone="no"?>
<!-- Created with Inkscape (http://www.inkscape.org/) -->

<svg
   version="1.1"
   id="svg1"
   width="129.72832"
   height="31.606974"
   viewBox="0 0 129.72831 31.606974"
   xmlns="http://www.w3.org/2000/svg"
   xmlns:svg="http://www.w3.org/2000/svg">
  <defs
     id="defs1" />
  <g
     id="g1"
     transform="translate(-9.6316638,-6.4734935)">
    <path
       style="fill:#000000"
       d="M 9.8133335,37.866666 C 9.2578967,37.311229 9.8619799,36.120702 13.229382,31.134318 18.66254,23.089003 18.64978,23.10641 23.830874,16.672233 29.191665,10.014897 33.458047,6.0314633 34.712074,6.5126786 35.830298,6.9417813 35.194792,9.3414095 32.157123,16.16 c -1.563265,3.509027 -4.224453,12.199336 -3.85031,12.573478 0.0966,0.0966 3.254234,-2.931406 7.016974,-6.728894 6.275058,-6.333006 7.045689,-7.002808 9.310035,-8.091915 2.041606,-0.981973 2.920004,-1.214812 5.077435,-1.345885 2.336078,-0.141926 2.700722,-0.08542 3.488744,0.540587 0.712434,0.565964 0.88,0.958185 0.88,2.059805 0,1.965664 -1.245012,5.338722 -3.815742,10.337826 l -2.251784,4.378875 3.900343,-3.932374 c 2.145189,-2.162806 4.531157,-4.366385 5.30215,-4.896842 2.030571,-1.39707 4.890973,-2.426932 7.437708,-2.677881 3.636631,-0.358344 3.996441,0.570588 1.904571,4.917086 -0.702485,1.459627 -1.277246,2.712627 -1.277246,2.784445 0,0.07182 1.110865,-0.605068 2.468588,-1.50419 5.014436,-3.3207 8.186315,-4.397866 12.981691,-4.408565 2.663844,-0.0059 4.175934,0.446514 5.151288,1.541405 0.622263,0.698525 0.622626,0.894672 0.0097,5.247357 -0.169823,1.206031 -0.112651,1.552917 0.280831,1.70391 0.271736,0.104275 2.918175,-0.463686 5.880977,-1.262134 2.962801,-0.798449 6.682911,-1.610202 8.266904,-1.803896 1.82665,-0.223366 8.14678,-0.316645 17.28,-0.255036 l 14.4,0.09714 3.04,-0.89325 c 3.92042,-1.151946 4.32,-1.187249 4.32,-0.381671 0,0.873471 -1.54303,1.566368 -5.39276,2.421621 -3.0712,0.682294 -3.5017,0.694532 -16.64,0.473044 -15.55157,-0.262172 -16.8236,-0.162769 -24.545857,1.918141 -7.684899,2.070842 -8.621376,1.96203 -8.621376,-1.001741 0,-0.971871 0.164093,-2.418712 0.364651,-3.215201 0.331209,-1.315351 0.303002,-1.509812 -0.30757,-2.120384 -1.299927,-1.299927 -6.812537,-1.043883 -10.448405,0.485295 -2.188227,0.920328 -6.237799,3.493436 -9.06951,5.762789 -1.287458,1.031778 -2.581804,1.829554 -2.876325,1.772834 -0.716238,-0.137935 -0.873189,-1.134574 -0.2834,-1.799586 0.509498,-0.574481 3.890258,-6.926602 4.3998,-8.266801 0.304451,-0.800766 0.296753,-0.80511 -1.056277,-0.595989 -2.046442,0.316293 -4.391259,1.101891 -6.002965,2.011209 -0.792,0.446843 -4.142858,3.490605 -7.446351,6.763916 -3.303494,3.273311 -6.255494,5.951474 -6.56,5.951474 -1.114127,0 -0.776526,-1.42746 1.159018,-4.900614 4.718491,-8.466896 7.018362,-14.185762 6.133601,-15.251833 -1.025628,-1.235806 -5.795831,-0.02302 -8.966268,2.279592 -2.036772,1.479262 -2.693292,2.110003 -9.030787,8.676183 -5.258469,5.448219 -7.258966,6.801745 -7.834849,5.301019 -0.547543,-1.426873 1.60905,-8.947639 4.722445,-16.468758 2.554003,-6.1697761 2.445748,-5.7274215 1.085489,-4.4355882 -2.916335,2.7696332 -6.497813,6.9247412 -10.864987,12.6051882 -2.149284,2.795605 -9.832764,14.132155 -10.162909,14.994811 -0.215115,0.562087 -0.902498,0.745239 -1.3010695,0.346667 z"
       id="path1" />
  </g>
</svg>
